<svg t="1628067133344" class="icon" viewBox="0 0 1024 1024" version="1.1" xmlns="http://www.w3.org/2000/svg" p-id="13411" width="200" height="200"><path d="M469.333333 512V384h85.333334v128h128v85.333333h-128v128h-85.333334v-128H341.333333v-85.333333h128z m426.666667-298.666667a85.333333 85.333333 0 0 1 85.333333 85.333334v512a85.333333 85.333333 0 0 1-85.333333 85.333333H128a85.333333 85.333333 0 0 1-85.333333-85.333333V213.333333a85.333333 85.333333 0 0 1 85.333333-85.333333h256c47.786667 0 78.208 20.266667 108.757333 58.837333 2.048 2.56 11.136 14.378667 13.354667 17.152 6.741333 8.32 8.106667 9.344 5.973333 9.344H896z m0 597.333334V298.666667h-384.213333c-30.677333-0.170667-50.602667-14.506667-72.106667-41.088-2.944-3.669333-12.373333-15.914667-13.781333-17.749334C409.898667 219.733333 400.384 213.333333 384 213.333333H128v597.333334h768z" p-id="13412"></path></svg>